<svg width="30" height="34" viewBox="0 0 30 34" fill="none" xmlns="http://www.w3.org/2000/svg">
<g clip-path="url(#clip0)">
<path d="M22.2 33.5H7.8C6.7 33.5 5.6 33.1 4.7 32.3C3.9 31.5 3.4 30.5 3.3 29.3L1.8 9H1C0.4 9 0 8.6 0 8C0 7.4 0.4 7 1 7H8.8V2.8C8.8 2 9 1.3 9.6 0.8C10.1 0.3 10.8 0 11.5 0H18.5C19.2 0 19.9 0.3 20.4 0.8C21 1.3 21.2 2 21.2 2.8V7H29C29.6 7 30 7.4 30 8C30 8.6 29.6 9 29 9H28.2L26.7 29.3C26.6 30.4 26.1 31.5 25.3 32.3C24.5 33.1 23.4 33.5 22.2 33.5ZM3.8 9L5.2 29.2C5.2 29.8 5.5 30.4 6 30.9C6.5 31.4 7.1 31.6 7.7 31.6H22.2C22.8 31.6 23.4 31.4 23.9 30.9C24.4 30.4 24.6 29.9 24.7 29.2L26.2 9H3.8ZM10.8 7H19.3V2.8C19.3 2.6 19.2 2.4 19.1 2.3C19 2.2 18.7 2 18.5 2H11.5C11.3 2 11.1 2.1 11 2.2C10.9 2.3 10.8 2.5 10.8 2.7V7ZM18.5 26.5C17.9 26.5 17.5 26.1 17.5 25.5V15C17.5 14.4 17.9 14 18.5 14C19.1 14 19.5 14.4 19.5 15V25.5C19.5 26.1 19.1 26.5 18.5 26.5ZM11.5 26.5C10.9 26.5 10.5 26.1 10.5 25.5V15C10.5 14.4 10.9 14 11.5 14C12.1 14 12.5 14.4 12.5 15V25.5C12.5 26.1 12.1 26.5 11.5 26.5Z" fill="#868686" stroke-width="2.0"/>
</g>
<defs>
<clipPath id="clip0">
<rect width="30" height="33.5" fill="white"/>
</clipPath>
</defs>
</svg>
