<svg id="datasheet" xmlns="http://www.w3.org/2000/svg" width="11.797" height="15.96" viewBox="0 0 11.797 15.96">
  <path id="Path_9269" data-name="Path 9269" d="M70.391,0H62.359a.98.98,0,0,0-.979.979v14a.98.98,0,0,0,.979.979H72.2a.98.98,0,0,0,.979-.979V3.026Zm.231,1.465,1.221,1.327H70.622Zm1.732,13.517a.158.158,0,0,1-.157.157H62.359a.157.157,0,0,1-.157-.157v-14a.157.157,0,0,1,.157-.156H69.8V3.2a.411.411,0,0,0,.411.41h2.143V14.981ZM63.77,5.462l-.858-3.38h.623l.4,1.689c.056.236.11.475.156.7.053-.227.116-.467.179-.7l.445-1.682h.572l.406,1.693c.053.221.1.449.149.67.045-.2.1-.4.147-.6l.019-.075.441-1.683h.61L66.1,5.462h-.571l-.42-1.736c-.052-.213-.1-.409-.135-.6-.044.191-.095.385-.157.6l-.474,1.732h-.57Zm3.756-.718H71.2a.308.308,0,1,1,0,.616H67.526a.308.308,0,1,1,0-.616Zm3.986,2.364a.308.308,0,0,1-.308.308H63.549a.308.308,0,1,1,0-.616H71.2A.308.308,0,0,1,71.512,7.107Zm0,1.822a.308.308,0,0,1-.308.308H63.549a.308.308,0,1,1,0-.616H71.2A.308.308,0,0,1,71.512,8.929Zm0,1.822a.308.308,0,0,1-.308.308H63.549a.308.308,0,1,1,0-.616H71.2A.308.308,0,0,1,71.512,10.751Zm0,1.847a.308.308,0,0,1-.308.308H63.549a.308.308,0,1,1,0-.616H71.2A.308.308,0,0,1,71.512,12.6Z" transform="translate(-61.38)" fill="blue"/>
</svg>
