<svg xmlns="http://www.w3.org/2000/svg" width="15.974" height="20.067" viewBox="0 0 15.974 20.067">
  <g id="report-review" transform="translate(-309.344 -511.926)">
    <path id="Path_8954" data-name="Path 8954" d="M322.442,531.993H312.219a2.88,2.88,0,0,1-2.875-2.883V516.845a2.878,2.878,0,0,1,2.875-2.875h1.337a2.879,2.879,0,0,1,2.753-2.045h2.045a2.879,2.879,0,0,1,2.753,2.045h1.335a2.878,2.878,0,0,1,2.876,2.875v12.273A2.878,2.878,0,0,1,322.442,531.993Zm-10.223-16.359a1.213,1.213,0,0,0-1.212,1.212v12.267a1.211,1.211,0,0,0,1.21,1.217h10.225a1.213,1.213,0,0,0,1.213-1.212V516.845a1.213,1.213,0,0,0-1.213-1.212h-1.335a2.88,2.88,0,0,1-2.753,2.043h-2.045a2.882,2.882,0,0,1-2.754-2.043Zm2.876-.8a1.215,1.215,0,0,0,1.213,1.18h2.046a1.214,1.214,0,0,0,1.212-1.18v-.065a1.214,1.214,0,0,0-1.212-1.18h-2.045A1.213,1.213,0,0,0,315.1,514.8Zm1.214,12.045a.828.828,0,0,1-.588-.244l-2.045-2.043a.831.831,0,1,1,1.175-1.176l1.457,1.457,3.5-3.5a.832.832,0,1,1,1.176,1.176l-4.088,4.088A.828.828,0,0,1,316.309,526.88Z" transform="translate(0 0)" fill="#1978d2"/>
  </g>
</svg>
